<svg xmlns="http://www.w3.org/2000/svg" viewBox="0 0 168.56 168.56"><defs><style>.cls-1{fill:#040404;}.cls-2{fill:none;stroke:#000;stroke-miterlimit:10;stroke-width:5px;}</style></defs><g id="레이어_2" data-name="레이어 2"><g id="레이어_1-2" data-name="레이어 1"><path class="cls-1" d="M130.09,72.3c-4.36,2.08-7.74,5.52-11.47,8.46-9.09,7.21-18.5,13.74-30,17.74A10.43,10.43,0,0,0,93.54,100l5.66.91c-13.84,9.57-29,11.82-44.58,13.27,4.31,2.41,9.34,1.84,14.81,3.86C63.65,119,58.87,120,54,120.47c-3.09.28-1.06,1.4-.39,2.71l-9.92-1.86c22.06-41.46,51.92-73.23,99-85.07-6-.66-11.57.74-17,2.72-27,9.85-48.26,27.2-65.74,49.7a181.51,181.51,0,0,0-28.83,55c-1.23,3.73-3.13,4.8-6.74,3.75,1.46-8.18,5.24-15.49,8.73-22.88,1.3-2.76,1.41-5-.19-7.64a87.83,87.83,0,0,1-4-8.15c.16-.16.32-.32.47-.49l4,1.49L32,103.4c1.25-.8,2,.87,3.45.18-1.48-11.41,2.29-21.15,11.3-29l-3.3,18.67,1.26.35c2.91-17,9-32.36,22.53-43.77A56.14,56.14,0,0,1,83.3,40.41C80.9,46.55,79,52.13,78,58c0,.67-1.32,1.27-.41,1.79.72.41.91-.61,1-1.24,2.51-5.21,5.08-10.41,7.53-15.64,5.32-11.41,14.17-18.58,26.43-22.14,0,3.5-2.78,5.75-3.64,8.81,1.84.6,2.27-1,3.08-1.9C121,17.36,142.74,20,148.89,32.15a15,15,0,0,1,.68,12c-5.34,15.88-17.35,23.36-33,26.17a91.37,91.37,0,0,1-24,.81,16.68,16.68,0,0,0,8.36,2.4,97.7,97.7,0,0,0,24.57-1.21c1.49-.24,3-1.21,4.55,0Z"/><rect class="cls-2" x="2.5" y="2.5" width="163.56" height="163.56" rx="5"/></g></g></svg>