<svg xmlns="http://www.w3.org/2000/svg" viewBox="0 0 200.02 200.02"><defs><style>.cls-1{fill:#050505;}.cls-2{fill:#fcfcfc;}.cls-3{fill:#040404;}</style></defs><g id="레이어_2" data-name="레이어 2"><g id="레이어_1-2" data-name="레이어 1"><path class="cls-1" d="M199.54,10.43V189.58a15.73,15.73,0,0,1-10,10H10.43a15.73,15.73,0,0,1-9.95-10V10.43a15.74,15.74,0,0,1,10-9.95H189.58A15.71,15.71,0,0,1,199.54,10.43ZM2.58,100q0,42,0,84.09c0,9.38,3.91,13.33,13.22,13.33H184.48c9,0,13-4,13-13.08q0-84.34,0-168.69c0-9-4-13.07-13-13.08q-84.34,0-168.68,0c-9.3,0-13.21,4-13.21,13.34Q2.56,58,2.58,100Z"/><path class="cls-2" d="M10.43.48a15.74,15.74,0,0,0-9.95,10C.48,7.12-.81,2.5.85.85S7.12.48,10.43.48Z"/><path class="cls-2" d="M199.54,10.43a15.71,15.71,0,0,0-10-9.95c3.32,0,7.93-1.29,9.59.37S199.54,7.12,199.54,10.43Z"/><path class="cls-2" d="M.48,189.58a15.73,15.73,0,0,0,10,10c-3.31,0-7.93,1.29-9.58-.37S.48,192.9.48,189.58Z"/><path class="cls-2" d="M189.58,199.54a15.73,15.73,0,0,0,10-10c0,3.32,1.29,7.93-.37,9.59S192.9,199.54,189.58,199.54Z"/><path class="cls-2" d="M2.58,100q0-42,0-84.09c0-9.38,3.91-13.34,13.21-13.34q84.35,0,168.68,0c9,0,13,4.05,13,13.08q0,84.35,0,168.69c0,9.05-4,13.08-13,13.08H15.8c-9.31,0-13.22-4-13.22-13.33Q2.56,142.06,2.58,100ZM89.3,68.37l-.79-.69c1.15-7.31,3.54-14.28,6.58-22A70.14,70.14,0,0,0,75,57.46C58.07,71.7,50.5,90.87,46.87,112.12l-1.57-.44,4.13-23.32c-11.25,9.84-16,22-14.1,36.25-1.82.87-2.75-1.21-4.31-.22l1.8,7.87-5-1.85c-.38-.12-1-.41-1.1-.31-.36.51,0,.78.51.91,1.65,3.4,3.07,7,5,10.17s1.86,6.1.24,9.54c-4.35,9.23-9.08,18.36-10.9,28.57,4.51,1.31,6.88,0,8.42-4.68,8.23-24.82,19.88-47.85,36-68.61,21.83-28.1,48.41-49.76,82.1-62.06,6.78-2.48,13.75-4.22,21.23-3.4C110.52,55.32,73.23,95,45.68,146.72L58.07,149c-.84-1.64-3.37-3,.49-3.39,6-.53,12-1.8,19.21-3-6.83-2.53-13.11-1.84-18.49-4.82,19.42-1.82,38.39-4.62,55.67-16.57-3.15-.5-5.11-.81-7.07-1.14s-4-.4-6.14-1.9c14.35-5,26.11-13.19,37.46-22.15,4.65-3.67,8.87-8,14.32-10.56l-.63-.36.6.41c-1.87-1.56-3.82-.35-5.68,0a121.79,121.79,0,0,1-30.68,1.51c-3.17-.28-6.43-.49-10.44-3,10.93.86,20.48.69,29.95-1,19.57-3.52,34.57-12.86,41.23-32.68A18.76,18.76,0,0,0,177,35.42c-7.69-15.21-34.86-18.47-46-5.55-1,1.16-1.56,3.1-3.83,2.29,1.07-3.79,4.57-6.59,4.54-11-15.34,4.44-26.39,13.4-33,27.64C95.64,55.39,92.43,61.86,89.3,68.37Z"/><path class="cls-3" d="M153.52,85.56c-5.45,2.59-9.67,6.89-14.32,10.56-11.35,9-23.11,17.16-37.46,22.15,2.15,1.5,4.19,1.58,6.14,1.9s3.92.64,7.07,1.14c-17.28,11.95-36.25,14.75-55.67,16.57,5.38,3,11.66,2.29,18.49,4.82-7.22,1.15-13.18,2.42-19.21,3-3.86.35-1.33,1.75-.49,3.39l-12.39-2.32C73.23,95,110.52,55.32,169.32,40.54c-7.48-.82-14.45.92-21.23,3.4C114.4,56.24,87.82,77.9,66,106c-16.13,20.76-27.78,43.79-36,68.61-1.54,4.66-3.91,6-8.42,4.68,1.82-10.21,6.55-19.34,10.9-28.57,1.62-3.44,1.76-6.26-.24-9.54s-3.37-6.77-5-10.17c.2-.2.4-.4.59-.61l5,1.86L31,124.39c1.56-1,2.49,1.09,4.31.22-1.85-14.24,2.85-26.41,14.1-36.25L45.3,111.68l1.57.44C50.5,90.87,58.07,71.7,75,57.46A70.14,70.14,0,0,1,95.09,45.73c-3,7.67-5.43,14.64-6.58,22,.07.84-1.65,1.59-.51,2.24.9.51,1.14-.76,1.3-1.55,3.13-6.51,6.34-13,9.4-19.53,6.64-14.24,17.69-23.2,33-27.64,0,4.37-3.47,7.17-4.54,11C129.46,33,130,31,131,29.87c11.15-12.92,38.32-9.66,46,5.55a18.76,18.76,0,0,1,.84,14.95c-6.66,19.82-21.66,29.16-41.23,32.68-9.47,1.71-19,1.88-29.95,1,4,2.51,7.27,2.72,10.44,3a121.79,121.79,0,0,0,30.68-1.51c1.86-.3,3.81-1.51,5.68,0Z"/><path class="cls-3" d="M153.49,85.61l-.6-.41.63.36Z"/><path class="cls-3" d="M27.2,131c-.49-.13-.87-.4-.51-.91.08-.1.72.19,1.1.3C27.6,130.61,27.4,130.81,27.2,131Z"/><path class="cls-2" d="M89.3,68.37c-.16.79-.4,2.06-1.3,1.55-1.14-.65.58-1.4.51-2.24Z"/></g></g></svg>