<svg xmlns="http://www.w3.org/2000/svg" viewBox="0 0 199.06 199.1"><defs><style>.cls-1{fill:#050505;}.cls-2{fill:#040404;}</style></defs><g id="레이어_2" data-name="레이어 2"><g id="레이어_1-2" data-name="레이어 1"><g id="레이어_2-2" data-name="레이어 2"><g id="레이어_1-2-2" data-name="레이어 1-2"><path class="cls-1" d="M199.06,10V189.1a15.71,15.71,0,0,1-10,10H10A15.73,15.73,0,0,1,0,189.1V10A15.73,15.73,0,0,1,10,0H189.1A15.71,15.71,0,0,1,199.06,10ZM2.1,99.52v84.09C2.1,193,6,196.94,15.32,196.94H184c9,0,13-4,13-13.08V15.17c0-9-4-13.07-13-13.08H15.32c-9.3,0-13.21,4-13.21,13.34Q2.08,57.52,2.1,99.52Z"/><path class="cls-2" d="M153,85.08c-5.45,2.59-9.67,6.89-14.32,10.56-11.35,9-23.11,17.16-37.46,22.15,2.15,1.5,4.19,1.58,6.14,1.9l7.07,1.14c-17.28,12-36.25,14.75-55.67,16.57,5.38,3,11.66,2.29,18.49,4.82-7.22,1.15-13.18,2.42-19.21,3-3.86.35-1.33,1.75-.49,3.39L45.2,146.29C72.75,94.52,110,54.84,168.84,40.06c-7.48-.82-14.45.92-21.23,3.4-33.69,12.3-60.27,34-82.09,62.06-16.13,20.76-27.78,43.79-36,68.61-1.54,4.66-3.91,6-8.42,4.68,1.82-10.21,6.55-19.34,10.9-28.57,1.62-3.44,1.76-6.26-.24-9.54a111.27,111.27,0,0,1-5-10.17c.2-.2.4-.4.59-.61l5,1.86-1.83-7.87c1.56-1,2.49,1.09,4.31.22C33,109.89,37.68,97.72,48.93,87.88L44.82,111.2l1.57.44C50,90.39,57.59,71.22,74.52,57A70.14,70.14,0,0,1,94.61,45.25c-3,7.67-5.43,14.64-6.58,22,.07.84-1.65,1.59-.51,2.24.9.51,1.14-.76,1.3-1.55,3.13-6.51,6.34-13,9.4-19.53,6.64-14.24,17.69-23.2,33-27.64,0,4.37-3.47,7.17-4.54,11,2.3.75,2.84-1.25,3.84-2.38,11.15-12.92,38.32-9.66,46,5.55a18.76,18.76,0,0,1,.84,15c-6.66,19.82-21.66,29.16-41.23,32.68-9.47,1.71-19,1.88-29.95,1,4,2.51,7.27,2.72,10.44,3a121.77,121.77,0,0,0,30.68-1.51c1.86-.3,3.81-1.51,5.68,0Z"/></g></g></g></g></svg>