<svg xmlns="http://www.w3.org/2000/svg" viewBox="0 0 65.22 23.53"><g id="레이어_2" data-name="레이어 2"><g id="레이어_1-2" data-name="레이어 1"><path d="M4.69,23H0V0H4.69Z"/><path d="M15.38,23H10.69V0h10a6.66,6.66,0,0,1,5.1,2,7.57,7.57,0,0,1,1.85,5.39,8.19,8.19,0,0,1-1.32,4.43,6.48,6.48,0,0,1-5.8,2.9H15.38Zm4.16-12.19a3.22,3.22,0,0,0,3.05-1.43A4.53,4.53,0,0,0,23,7.18a2.92,2.92,0,0,0-1-2.46A5,5,0,0,0,19,4H15.38v6.82Z"/><path d="M35.51,8.94A5.89,5.89,0,0,1,37,8.06a7.09,7.09,0,0,1,2.49-.38,6.35,6.35,0,0,1,4.43,1.7,7.28,7.28,0,0,1,2.22,5.68,9.28,9.28,0,0,1-1.55,5.56c-1.37,1.94-3.51,2.91-6.44,2.91a7.55,7.55,0,0,1-4.93-1.65,6.18,6.18,0,0,1-2.28-5.09h4.36a3.21,3.21,0,0,0,.82,2.31,3.09,3.09,0,0,0,2.29.82,2.84,2.84,0,0,0,2.46-1.26,5.49,5.49,0,0,0,.88-3.28,4.71,4.71,0,0,0-.79-2.81,2.92,2.92,0,0,0-2.52-1.29,4.37,4.37,0,0,0-1.38.2,2.73,2.73,0,0,0-1.52,1.38l-3.9-.2L33.14,0H45.29V3.78h-9Z"/><path d="M65.22,17.9H62.81V23H58.45V17.9H49.72V14L57.86,0h5V14.41h2.41Zm-6.77-3.49V4.51h0L53,14.41Z"/></g></g></svg>