<svg xmlns="http://www.w3.org/2000/svg" viewBox="0 0 81.47 40.75"><defs><style>.cls-1{fill:#020202;}.cls-2{fill:#f7f7f7;}</style></defs><g id="레이어_2" data-name="레이어 2"><g id="레이어_1-2" data-name="레이어 1"><path class="cls-1" d="M48.36,20.43v17.9c0,1.74-.68,2.42-2.42,2.42H12.53a6.53,6.53,0,0,1-4-1.32l-6.68-5A4.31,4.31,0,0,1,0,30.79Q0,20.44,0,10.07A4.52,4.52,0,0,1,2,6.2C4.06,4.7,6.1,3.14,8.13,1.57A7.46,7.46,0,0,1,12.85,0q16.5,0,33,0c1.9,0,2.53.63,2.53,2.52Zm-30.87-.3c1.37-1.45,2.57-2.73,3.79-4a3,3,0,0,1,4.16,0,2.36,2.36,0,0,0,3.31,0,2.31,2.31,0,0,0,0-3.31,2.22,2.22,0,0,0-3.28,0,2,2,0,0,1-1.86.74,4.68,4.68,0,0,0-3.93,1.68c-1.31,1.44-2.66,2.86-4,4.25-1,1-2.06.92-2.71-.25a3.81,3.81,0,0,0-7.17,1.56A3.86,3.86,0,0,0,8.54,24.7a3.79,3.79,0,0,0,4.57-2.16c.21-.47.41-.66.93-.65,1.84,0,3.69,0,5.53,0a2.22,2.22,0,0,1,1.71.79c1.16,1.24,2.39,2.42,3.49,3.71a5.14,5.14,0,0,0,4.73,2.09c.55-.06.81.12.75.71,0,.41-.06.79.57.77,1.33-.06,2.67-.06,4-.09a23.8,23.8,0,0,0,.13-4c0-.51-.16-.71-.69-.7-1,0-2.09,0-3.14,0-.64,0-1,.12-.88.83,0,.33.05.64-.46.65-1.25,0-2.45.09-3.31-1.1-.47-.64-1.11-1.15-1.63-1.75a9,9,0,0,1-1.66-2c4.59,0,9.07,0,13.56,0,.88,0,1.38.11,1.19,1.14,0,.23-.15.85.42.55,1.45-.78,2.85-1.64,4.43-2.56-1.55-.89-2.91-1.69-4.28-2.47-.72-.41-.62.18-.57.54.1.83-.17,1.08-1,1.07-6.07,0-12.15,0-18.23,0Z"/><path class="cls-1" d="M50.92,20.39c0-4.73,0-9.47,0-14.21,0-.79.13-1.09,1-1.09,9,0,18.08,0,27.12,0,1.75,0,2.41.67,2.41,2.45q0,12.86,0,25.71c0,1.64-.72,2.37-2.39,2.38-9.11,0-18.23,0-27.34,0-.67,0-.84-.17-.84-.84C50.93,30,50.92,25.2,50.92,20.39ZM63.67,13.3c0,.76,0,1.52,0,2.27s.23,1,.93,1c1,0,2.09,0,3.13,0,.65,0,1-.22,1-.94,0-1.51,0-3,0-4.54a.76.76,0,0,0-.84-.88c-1.11,0-2.23,0-3.35,0-.62,0-.9.31-.87,1S63.67,12.58,63.67,13.3Zm0,14c0,.75,0,1.51,0,2.27s.25,1,1,1c1,0,2.09,0,3.13,0,.68,0,1-.27,1-1,0-1.48,0-3,0-4.44,0-.71-.32-1-1-1h-1C63.67,24.23,63.67,24.23,63.67,27.32Z"/><path class="cls-2" d="M17.49,20.13h1.16c6.08,0,12.16,0,18.23,0,.88,0,1.15-.24,1-1.07,0-.36-.15-.95.57-.54,1.37.78,2.73,1.58,4.28,2.47-1.58.92-3,1.78-4.43,2.56-.57.3-.46-.32-.42-.55.19-1-.31-1.15-1.19-1.14-4.49,0-9,0-13.56,0a9,9,0,0,0,1.66,2c.52.6,1.16,1.11,1.63,1.75.86,1.19,2.06,1.14,3.31,1.1.51,0,.5-.32.46-.65-.09-.71.24-.86.88-.83,1.05,0,2.1,0,3.14,0,.53,0,.72.19.69.7a23.8,23.8,0,0,1-.13,4c-1.33,0-2.67,0-4,.09-.63,0-.61-.36-.57-.77.06-.59-.2-.77-.75-.71a5.14,5.14,0,0,1-4.73-2.09c-1.1-1.29-2.33-2.47-3.49-3.71a2.22,2.22,0,0,0-1.71-.79c-1.84,0-3.69,0-5.53,0-.52,0-.72.18-.93.65A3.79,3.79,0,0,1,8.54,24.7a3.84,3.84,0,0,1,.63-7.5,3.82,3.82,0,0,1,3.79,2c.65,1.17,1.68,1.3,2.71.25,1.36-1.39,2.71-2.81,4-4.25a4.68,4.68,0,0,1,3.93-1.68,2,2,0,0,0,1.86-.74,2.22,2.22,0,0,1,3.28,0,2.31,2.31,0,0,1,0,3.31,2.36,2.36,0,0,1-3.31,0,3,3,0,0,0-4.16,0C20.06,17.4,18.86,18.68,17.49,20.13Z"/><path class="cls-2" d="M63.67,13.3c0-.72,0-1.44,0-2.16s.25-1,.87-1c1.12,0,2.24,0,3.35,0a.76.76,0,0,1,.84.88c0,1.52,0,3,0,4.54,0,.72-.35,1-1,.94-1,0-2.09,0-3.13,0-.7,0-1-.29-.93-1S63.67,14.06,63.67,13.3Z"/><path class="cls-2" d="M63.67,27.32c0-3.09,0-3.09,3.11-3.1h1c.66,0,1,.25,1,1,0,1.48,0,3,0,4.44,0,.69-.31,1-1,1-1,0-2.09,0-3.13,0-.7,0-1-.3-1-1S63.67,28.07,63.67,27.32Z"/></g></g></svg>