<svg xmlns="http://www.w3.org/2000/svg" viewBox="0 0 200.5 68.8"><defs><style>.cls-1{fill:#10356f;}.cls-2{fill:#fff;stroke:#10356f;stroke-miterlimit:10;}.cls-3{fill:#052c69;}.cls-4{fill:#0d336e;}.cls-5{fill:#0d326d;}.cls-6{fill:#e74744;}.cls-7{fill:#09306b;}.cls-8{fill:#1a3e75;}.cls-9{fill:#0a306c;}.cls-10{fill:#0a306b;}</style></defs><g id="레이어_2" data-name="레이어 2"><g id="레이어_1-2" data-name="레이어 1"><rect class="cls-1" x="4.23" y="3.52" width="196.2" height="65.01" rx="9.25" transform="translate(-0.11 0.32) rotate(-0.18)"/><rect class="cls-2" x="0.57" y="0.77" width="196.2" height="65.01" rx="9.25" transform="translate(-0.1 0.3) rotate(-0.18)"/><path class="cls-3" d="M132.55,39.57c-.79,2.82-1.58,5.63-2.36,8.45A4,4,0,0,1,123.92,50a2.82,2.82,0,0,1-.75-1.56c-.82-2.92-1.62-5.84-2.67-8.77-.23,2.15-.45,4.3-.68,6.44-.17,1.62-.36,3.25-.5,4.87,0,.59-.19.92-.87.9-1.36,0-2.72-.05-4.08,0-.72,0-.83-.3-.75-.91.8-6.66,1.59-13.32,2.41-20a3.34,3.34,0,0,1,3.27-2.91,3.45,3.45,0,0,1,3.85,2.53c1,3.67,2,7.36,3,11a2.75,2.75,0,0,0,.63,1.53l2-7.65c.43-1.62.83-3.25,1.3-4.86a3.48,3.48,0,0,1,4-2.57,3.38,3.38,0,0,1,3.22,3.26c.77,6.48,1.54,13,2.35,19.44.11.84-.07,1.17-1,1.09-.72-.07-1.45,0-2.18,0-2.51,0-2.5,0-2.73-2.45-.31-3.25-.63-6.5-.94-9.74Z"/><path class="cls-3" d="M157.91,45.46c0,2,0,3.69,0,5.36,0,.75-.19,1.08-1,1-1-.06-2,0-3,0-.23,0-.62,0-.65-.07-.52-1.54-1.26-.39-1.86-.13a7.64,7.64,0,0,1-6.82-.11c-2.38-1.2-3-3.36-2.83-5.85A5,5,0,0,1,145.34,41a15.42,15.42,0,0,1,5.37-.6c.39,0,1,.33,1.13-.32a1.28,1.28,0,0,0-.71-1.24,4.56,4.56,0,0,0-3.55-.19,12.24,12.24,0,0,0-1.52.59A2.43,2.43,0,0,1,143.73,35a10,10,0,0,1,5-1.58,11.79,11.79,0,0,1,4.18.32,6.15,6.15,0,0,1,4.84,5.56A57.82,57.82,0,0,1,157.91,45.46Zm-7.38-.65c-.31,0-.54,0-.76,0-.76.08-1.57.07-1.94.94a1.2,1.2,0,0,0,.16,1.39,2.06,2.06,0,0,0,2.25.45,5,5,0,0,0,.76-.29,1.73,1.73,0,0,0,.93-2C151.74,44.38,150.93,45,150.53,44.81Z"/><path class="cls-3" d="M166.93,40.42c0,3.45,0,6.89,0,10.33,0,.8-.16,1.15-1,1.1-1.45-.07-2.9,0-4.35,0-.64,0-.87-.21-.87-.85,0-7.07,0-14.14,0-21.2,0-1.86,1.2-2.85,3.1-2.85a2.75,2.75,0,0,1,3.07,2.89c.06,3.53,0,7.06,0,10.59Z"/><path class="cls-3" d="M176.17,40.53c0,3.39,0,6.79,0,10.19,0,.9-.26,1.18-1.15,1.13-1.36-.07-2.72-.05-4.08,0-.73,0-1.05-.15-1.05-1,0-7,0-14,0-20.93a2.72,2.72,0,0,1,2.92-3c1.94-.08,3.17.86,3.23,2.84.1,3.58,0,7.16,0,10.74Z"/><path class="cls-3" d="M166.88,19.89c-.28,0-.38-.08-.46-.37l-.48-1.68c-.33-1.16-.66-2.32-1-3.48-.09-.32.06-.53.37-.54h.14L177,13.74c.13,0,.17,0,.21-.17a1.85,1.85,0,0,1,2-1.37.36.36,0,0,1,.32.38.37.37,0,0,1-.33.37H179a1.12,1.12,0,0,0-1.05.84,2.41,2.41,0,0,0-.07.37c-.24,1.6-.49,3.21-.73,4.81-.08.52-.15,1-.24,1.55A1.83,1.83,0,0,1,175,22.1l-8.09.07h-.15a.38.38,0,0,1,.09-.75l2.1,0,6.09,0a1.12,1.12,0,0,0,1.12-1,1.67,1.67,0,0,1,.05-.31c0-.16,0-.2-.16-.2l-4.6,0Zm-.8-4.23c.32,1.1.63,2.2.94,3.31,0,.14.1.16.22.16l9-.07c.14,0,.17,0,.19-.18.22-1.42.43-2.83.65-4.25,0-.16,0-.14-.14-.14l-8,.06-2.91,0h-.21C165.88,15,166,15.3,166.08,15.66Z"/><path class="cls-3" d="M165.5,14.25c.11.42.21.82.32,1.23.32,1.25.65,2.5,1,3.75,0,.16.1.19.23.19,3.12,0,6.23-.06,9.34-.07.14,0,.18-.06.2-.21.22-1.61.45-3.22.68-4.82,0-.18-.05-.16-.16-.16l-8.33.06-3,0Z"/><path class="cls-3" d="M174,22.69a1.38,1.38,0,1,0,1.34,1.36A1.36,1.36,0,0,0,174,22.69Z"/><path class="cls-3" d="M168.53,22.71a1.38,1.38,0,0,0,0,2.75,1.38,1.38,0,0,0,0-2.75Z"/><path class="cls-4" d="M60.63,52.33H53.31V38h7.32Z"/><path class="cls-5" d="M71.9,30.47V15.32h9.71c.06.81.16,1.56.17,2.3,0,10.71,0,21.41,0,32.11,0,1.94-.41,2.85-2.52,2.61-2.31-.26-5.39.54-6.75-.68-1.17-1-.43-4.29-.49-6.56-.08-3-.11-5.94-.17-8.91C71.9,34.28,71.9,32.38,71.9,30.47Z"/><path class="cls-6" d="M71.9,30.47c0,1.91,0,3.81,0,5.72H53.64V30.47Z"/><path class="cls-7" d="M53.77,15.28h7.36v13H53.77Z"/><path class="cls-8" d="M49.07,15.25h2.36V52.09c-1.38.41-2.37.5-2.37-1.39C49.09,38.93,49.07,27.28,49.07,15.25Z"/><path class="cls-9" d="M70.15,15.23V28.36h-.57V15.24Z"/><path class="cls-9" d="M69.74,38.39v13h-.56v-13Z"/><path class="cls-10" d="M30.82,52.34,30.7,15.16l10.31,0a10.57,10.57,0,0,1,.2,1.39c0,8.69.1,17.38.07,26.07C41.26,48.64,36.82,52.79,30.82,52.34Z"/><path class="cls-1" d="M25.29,52.34c-7,.38-12.55-5.41-12.2-12.72l12.16,0Z"/><path class="cls-9" d="M104.71,15.27c0,3.17.08,6.21,0,9.24a2.24,2.24,0,0,1-1.23,1.55c-4.74,1.8-7,4.46-6.7,8.1.32,4,3,6.59,7.88,7.4a7.86,7.86,0,0,1,.15,1c0,3.14,0,6.27,0,9.72-6.26.65-11.2-1.69-15.28-6.27A19.11,19.11,0,0,1,86.7,25.93,17.91,17.91,0,0,1,104.71,15.27Z"/></g></g></svg>